<svg class="img-fluid" id="outputsvg" xmlns="http://www.w3.org/2000/svg" style="transform: none; transform-origin: 50% 50% 0px; cursor: move; transition: none;" width="1833" height="1905" viewBox="0 0 18330 19050"><g id="l5wgKcSzwU2uwez9qBk6rIP" fill="rgb(159,152,222)" style="transform: none;"><g style="transform: none;"><path id="pnCS8wydn" d="M8675 19029 c-2768 -147 -5312 -1536 -6941 -3789 -1022 -1413 -1606 -3060 -1714 -4830 -13 -215 -13 -833 0 -1053 75 -1243 398 -2467 935 -3536 l54 -108 222 113 c122 62 224 116 227 119 3 3 -38 94 -90 202 -466 960 -738 1983 -830 3118 -20 249 -17 1047 5 1305 130 1507 605 2877 1420 4100 333 499 652 886 1091 1326 442 441 814 747 1311 1079 1269 848 2653 1318 4230 1437 207 16 934 15 1135 0 1194 -94 2197 -360 3205 -851 754 -368 1421 -819 2035 -1377 184 -167 531 -519 684 -694 1144 -1305 1865 -2903 2081 -4612 53 -425 60 -548 60 -1093 0 -544 -7 -671 -60 -1093 -117 -926 -373 -1792 -788 -2664 l-65 -137 22 -14 c33 -22 428 -219 431 -215 11 12 136 274 200 418 382 861 626 1773 729 2725 48 441 65 1120 37 1530 -57 847 -200 1585 -456 2350 -349 1045 -870 1997 -1558 2848 -388 480 -861 957 -1332 1342 -1416 1159 -3157 1869 -4975 2029 -395 35 -925 45 -1305 25z"></path><path id="p17QJ1J0aX" d="M6208 17214 c-3 -5 -9 -80 -13 -167 -5 -98 -12 -160 -19 -165 -6 -4 -83 -25 -171 -48 l-160 -40 142 -95 c78 -52 142 -101 142 -109 0 -8 -19 -82 -43 -165 -24 -82 -42 -151 -41 -153 1 -1 71 31 155 72 l152 76 122 -127 123 -128 7 135 c4 74 9 154 12 177 l6 41 151 37 c84 21 158 41 165 45 8 4 -38 40 -127 100 -78 51 -141 97 -141 102 0 6 20 79 45 162 25 84 45 156 45 159 0 4 -70 -28 -156 -71 l-156 -77 -118 124 c-64 68 -119 120 -122 115z"></path><path id="p6r28wboo" d="M11712 16383 c-28 -87 -68 -213 -89 -280 l-38 -123 -299 0 -298 0 53 -58 c30 -32 121 -131 202 -220 l148 -161 -145 -253 c-80 -138 -144 -253 -143 -255 2 -1 125 24 275 57 149 33 277 60 285 60 8 0 78 -111 158 -249 79 -137 146 -247 149 -245 3 3 44 128 91 277 l86 272 294 5 293 5 -173 190 c-96 105 -184 201 -197 215 l-23 26 140 244 c78 135 143 250 146 256 2 6 -119 -16 -284 -53 -158 -35 -289 -60 -291 -56 -1 4 -67 120 -146 256 l-144 248 -50 -158z"></path><path id="p14GzHSEBO" d="M6450 14789 c-872 -61 -1734 -353 -2550 -866 -165 -104 -258 -180 -463 -382 -748 -735 -1255 -1723 -1442 -2808 -76 -444 -85 -984 -24 -1448 204 -1554 1196 -2948 2596 -3649 1162 -581 2483 -652 3833 -204 l155 52 -99 17 c-161 29 -457 106 -661 173 -1384 457 -2393 1319 -2879 2462 -159 376 -253 738 -321 1249 -46 339 -54 547 -35 839 55 805 315 1583 740 2216 392 584 922 1046 1578 1374 511 256 1104 428 1777 517 88 11 161 22 163 23 1 2 -44 24 -100 49 -673 300 -1491 439 -2268 386z"></path><path id="pyGiB9Vyl" d="M7020 12596 l0 -175 370 -510 c204 -281 370 -513 370 -516 0 -3 -161 -6 -357 -7 l-358 -3 -3 -197 -2 -198 800 0 800 0 0 188 0 187 -360 468 c-198 257 -360 471 -360 474 0 3 162 3 360 -1 l360 -8 0 236 0 236 -810 0 -810 0 0 -174z"></path><path id="pVUbU8KAF" d="M9510 11433 l0 -258 545 -752 c300 -414 545 -754 545 -757 0 -4 -66 -6 -147 -6 -82 0 -320 -3 -530 -7 l-383 -6 0 -294 0 -293 1180 0 1180 0 0 283 -1 282 -529 688 c-292 378 -530 690 -530 693 0 4 239 3 530 -1 l530 -8 0 347 0 346 -1195 0 -1195 0 0 -257z"></path><path id="p3MpNND3I" d="M12770 9842 l0 -348 750 -1034 749 -1035 -317 -6 c-174 -4 -500 -7 -724 -8 l-408 -1 0 -405 0 -405 1615 0 1615 0 0 379 0 379 -730 948 c-401 522 -730 953 -730 957 0 5 24 6 53 3 28 -3 273 -8 542 -11 270 -3 574 -8 678 -11 l187 -7 0 477 0 476 -1640 0 -1640 0 0 -348z"></path><path id="pKX1C2Fz4" d="M16363 5429 c-79 -88 -143 -167 -142 -177 0 -9 26 -226 58 -482 31 -256 56 -467 54 -469 -1 -2 -120 85 -263 193 l-261 198 -137 -130 c-159 -151 -207 -200 -201 -205 10 -9 1187 -935 1219 -959 l36 -27 89 81 c50 44 116 106 148 136 l58 55 -65 491 c-37 270 -69 502 -72 515 -4 17 -1 22 9 18 7 -3 145 -96 306 -207 161 -111 296 -198 300 -194 50 56 261 357 255 363 -23 21 -1243 961 -1246 960 -2 0 -67 -72 -145 -160z"></path><path id="p17lPOqN7B" d="M1188 5066 c-356 -281 -646 -514 -645 -517 1 -4 113 -131 250 -282 l248 -276 62 29 c34 16 213 100 397 188 184 88 336 158 338 157 2 -2 -118 -178 -266 -392 l-269 -390 239 -267 239 -267 35 28 c118 96 1213 1039 1213 1046 1 9 -282 387 -289 387 -3 0 -151 -106 -330 -236 -179 -129 -333 -240 -344 -246 -25 -14 -35 -28 246 355 l248 338 -137 145 c-76 79 -142 144 -147 144 -9 0 -773 -297 -790 -308 -38 -22 43 54 322 302 263 235 321 291 311 302 -6 8 -73 72 -148 142 l-136 128 -647 -510z"></path><path id="p1CqySErTb" d="M11232 4996 c-106 -155 -197 -288 -201 -295 -7 -10 -79 9 -327 84 -176 54 -331 101 -345 105 -24 7 -15 -16 127 -313 85 -176 154 -323 154 -326 -1 -3 -117 -114 -259 -246 -142 -132 -257 -241 -256 -243 1 -1 148 -14 326 -27 178 -14 338 -28 354 -30 l30 -5 79 -344 c44 -190 83 -343 87 -341 3 3 93 131 200 286 106 155 198 283 204 286 7 2 160 -41 341 -97 182 -55 333 -100 336 -100 4 0 -63 145 -148 322 -145 304 -153 323 -136 339 9 9 123 115 252 235 129 121 237 224 240 229 3 6 -133 21 -344 38 -192 15 -352 29 -354 32 -2 2 -40 158 -84 347 -43 188 -80 343 -81 344 -1 1 -89 -125 -195 -280z"></path><path id="pZO0owPg3" d="M14780 3785 c-101 -96 -186 -178 -187 -182 -3 -8 1083 -1225 1098 -1231 7 -3 402 343 407 357 3 8 -1112 1224 -1126 1228 -4 1 -90 -76 -192 -172z"></path><path id="p5bMcW8Kh" d="M3104 3106 c-280 -330 -510 -603 -512 -607 -3 -8 1033 -849 1045 -848 9 0 255 290 260 305 2 5 -145 121 -326 258 l-329 248 46 64 c25 35 48 64 52 64 3 0 140 -106 304 -235 l299 -234 98 124 c55 69 99 129 99 134 0 5 -123 120 -274 255 l-273 246 82 80 c45 44 84 80 88 80 5 0 301 -203 548 -376 l75 -53 122 149 c67 82 122 154 122 159 0 5 -229 185 -508 399 l-509 389 -509 -601z"></path><path id="p1EytYBFUc" d="M13941 3060 c-123 -66 -225 -121 -226 -122 -2 -2 -42 -203 -89 -448 -48 -245 -90 -456 -94 -469 -9 -26 -12 -19 -222 422 -62 129 -109 216 -116 213 -6 -2 -101 -69 -211 -148 l-200 -144 403 -679 c222 -374 405 -684 406 -689 3 -7 334 199 365 228 7 6 40 198 78 446 35 239 68 447 72 462 8 25 23 8 248 -272 132 -165 243 -300 248 -300 12 0 357 262 357 272 0 13 -782 1348 -789 1348 -3 -1 -107 -55 -230 -120z"></path><path id="p1qZUXUQp" d="M5091 2652 c-9 -17 -557 -1256 -616 -1394 l-34 -76 177 -66 c97 -36 214 -78 258 -95 l82 -30 117 267 c65 147 165 374 222 505 58 130 110 237 117 237 6 -1 189 -81 406 -178 l395 -178 78 219 c43 121 75 223 70 227 -6 7 -904 419 -1210 556 -49 22 -53 22 -62 6z"></path><path id="pINwoujUM" d="M11531 2069 c-73 -14 -141 -39 -226 -82 -105 -54 -250 -197 -312 -307 -240 -428 -96 -983 317 -1226 391 -231 878 -86 1094 326 61 117 88 219 94 363 9 231 -37 399 -161 581 -115 170 -325 309 -521 345 -69 13 -221 13 -285 0z m265 -424 c122 -36 236 -146 284 -273 33 -86 38 -212 12 -298 -99 -323 -471 -416 -695 -174 -138 148 -167 363 -75 544 44 86 147 172 241 201 57 18 173 18 233 0z"></path><path id="p182k6PrQh" d="M6805 1953 c3 -21 37 -389 75 -818 38 -429 72 -798 75 -821 l6 -41 297 -49 298 -50 394 739 c217 407 395 744 395 750 0 9 -409 95 -460 97 -6 0 -40 -58 -75 -130 -47 -94 -69 -129 -80 -126 -8 2 -97 17 -197 32 l-182 28 -26 115 c-35 154 -53 222 -58 227 -3 4 -449 84 -465 84 -1 0 0 -17 3 -37z m690 -699 c88 -14 161 -27 163 -29 2 -2 -206 -343 -286 -470 l-26 -40 -32 275 c-18 151 -33 281 -33 288 -1 10 7 12 27 8 15 -3 99 -18 187 -32z"></path><path id="peDLKjLqu" d="M9160 1035 l0 -605 -22 -1 c-13 -1 -126 -6 -253 -13 l-230 -11 2 -193 c1 -107 3 -196 6 -198 2 -3 369 18 815 46 446 27 816 50 822 50 6 0 10 74 10 215 l0 216 -62 -6 c-113 -10 -500 -35 -546 -35 l-45 0 7 570 8 570 -256 0 -256 0 0 -605z"></path></g></g></svg>